<svg xmlns="http://www.w3.org/2000/svg" width="72.75" height="20.064" xml:space="preserve"><path fill="#030303" d="M15.5 17.308c.193.245.334.493.419.771.044.143.083.286.077.438-.006.162-.093.27-.256.296a2.431 2.431 0 0 1-1.323-.14 1.179 1.179 0 0 0-.077-.028c.023.175.046.339.04.508a2.292 2.292 0 0 1-.103.636c-.073.23-.258.328-.483.249a2.471 2.471 0 0 1-1.383-1.201 2.658 2.658 0 0 1-.258-.666c-.018-.08-.046-.082-.113-.056a9.162 9.162 0 0 1-2.001.525c-1.039.149-2.066.125-3.069-.224-.285-.1-.56-.226-.82-.379-.177-.106-.25-.24-.208-.443.107-.528.27-1.036.569-1.492.07-.104.148-.203.232-.296.084-.094.186-.169.287-.249a6.16 6.16 0 0 1-1.762-2.726c-.011-.036-.011-.074-.069-.077-.49-.025-.977-.079-1.463-.145a11.349 11.349 0 0 1-2.108-.47 5.474 5.474 0 0 1-.295-.106c-.278-.111-.375-.441-.137-.668.42-.403.824-.822 1.218-1.252a38.66 38.66 0 0 0 2.238-2.665 27.42 27.42 0 0 0 1.545-2.206c.549-.888 1.036-1.806 1.37-2.799.162-.48.264-.975.262-1.485 0-.167-.012-.334-.048-.499-.038-.187.071-.363.259-.429.19-.066.378-.019.448.133.117.256.284.479.451.7.499.658 1.106 1.201 1.778 1.676.96.676 2.008 1.185 3.099 1.609a30.76 30.76 0 0 0 3.889 1.222c.704.171 1.414.315 2.133.41.261.033.338.241.312.434a.385.385 0 0 1-.106.224 23.121 23.121 0 0 1-2.71 2.468c-.109.083-.218.166-.33.247-.033.024-.041.046-.028.087.161.515.253 1.04.274 1.578a5.865 5.865 0 0 1-.267 1.957 6.172 6.172 0 0 1-.885 1.793c-.025.036-.032.052.012.083a2.706 2.706 0 0 1 1.132 1.808 1.4 1.4 0 0 1 .005.438c-.028.181-.136.287-.315.32-.42.077-.844.1-1.27.094-.045-.004-.093-.003-.162-.003z"/><path fill="#C93" d="M18.978 6.408c-.124.132-.238.266-.366.386-.245.229-.494.454-.746.675a19.7 19.7 0 0 1-2.322 1.756 18.2 18.2 0 0 1-2.784 1.482 16.594 16.594 0 0 1-5.302 1.284c-.529.039-1.062.053-1.592.035a16.044 16.044 0 0 1-2.897-.34c-.266-.057-.532-.114-.793-.188-.009-.035.018-.045.033-.062A40.166 40.166 0 0 0 5.35 7.782a25.167 25.167 0 0 0 1.713-2.5c.501-.849.954-1.725 1.247-2.673a6.71 6.71 0 0 0 .23-1.021l.251.276c.616.666 1.329 1.212 2.099 1.683 1.104.676 2.288 1.184 3.502 1.622 1.064.385 2.145.709 3.247.965.443.104.888.195 1.339.274z"/><path fill="#E2C9A2" d="m11.348 16.36-.031.006c-.06.015-.121-.007-.18.011a5.248 5.248 0 0 1-1.394-.179 5.86 5.86 0 0 1-1.008-.374 5.124 5.124 0 0 1-1.441-1.044c-.124-.125-.233-.267-.353-.396-.047-.05-.038-.086.003-.133.185-.206.348-.427.491-.662.152-.25.281-.509.316-.805.009-.077.066-.06.106-.063a16.89 16.89 0 0 0 2.481-.406c.072-.017.146-.03.216-.055.068-.022.085 0 .095.064.03.206.185.352.389.378a.435.435 0 0 0 .419-.171c.111-.144.12-.302.058-.469-.007-.021-.046-.043-.014-.066.025-.02.051.01.071.023.061.043.121.089.178.139.102.086.208.084.293-.009.075-.084.064-.188-.029-.276a.493.493 0 0 0-.033-.03l.757-.291a16.738 16.738 0 0 0 2.13-1.013c.243-.135.481-.28.722-.42.047 0 .059.038.068.071.055.18.068.361.027.542a.362.362 0 0 1-.195.246c-.064.014-.115-.024-.17-.045-.301-.111-.603-.13-.901.005a1.117 1.117 0 0 0-.552.557c-.056.116.029.247.161.261.029.002.061-.009.089.006.062.103.078.219.111.331.081.272.16.545.238.818.01.037.027.073.01.113-.041.021-.068-.012-.1-.023-.073-.028-.135-.012-.192.037s-.049.109-.025.173c.084.225.175.447.264.671.042.108.034.137-.059.207-.215.16-.46.245-.723.278a1.984 1.984 0 0 1-.493.008c-.134-.019-.215.095-.168.222.008.022.021.042.027.066.011.065-.022.122-.05.176-.043.086-.069.184-.143.253a1.246 1.246 0 0 1-.636-.198c-.043-.025-.084-.057-.127-.084a.186.186 0 0 0-.181-.01c-.133.062-.145.188-.026.277.186.139.388.25.613.312.04.013.082.021.117.046.021.041-.012.062-.032.084-.236.284-.514.52-.842.691-.112.059-.223.125-.352.15z"/><path fill="#E2C9A2" d="M11.348 16.36c.145-.077.297-.14.439-.225.305-.183.567-.412.787-.691.028-.029.062-.014.093-.008.38.062.741.007 1.078-.184.036-.021.073-.04.104-.071a.166.166 0 0 0 .024-.214c-.047-.072-.122-.095-.205-.06-.081.033-.153.083-.235.112-.176.068-.36.094-.548.083-.027 0-.055 0-.074-.025.066-.135.146-.263.182-.41.133.045.27.071.41.062.43-.021.838-.11 1.187-.383.066-.052.126-.11.182-.174.065-.073.081-.15.041-.248-.109-.267-.211-.536-.319-.803-.012-.029-.032-.06-.022-.094l-.362-1.266c.036-.08.087-.149.133-.225.013-.021.03-.055.06-.045.036.01.028.049.03.077.002.038.004.078.015.115a.416.416 0 0 0 .328.314.406.406 0 0 0 .438-.161c.113-.15.118-.309.033-.475-.004-.009-.01-.016-.014-.023-.016-.033-.067-.065-.04-.1.036-.041.083 0 .121.019.074.035.146.071.216.112.087.05.15.04.208-.029a.173.173 0 0 0 .006-.224.32.32 0 0 0-.089-.075c-.03-.019-.067-.03-.074-.073.251-.185.219-.442.172-.701-.01-.054-.011-.114-.061-.154.236-.152.472-.306.714-.46.074.244.118.493.15.744.102.8.006 1.578-.25 2.34a5.305 5.305 0 0 1-1.111 1.895 5.244 5.244 0 0 1-3.031 1.668c-.237.043-.475.081-.716.06z"/><path fill="#C01F4A" d="M8.91 17.95c-.667 0-1.259-.086-1.829-.31-.097-.039-.192-.085-.287-.128-.03-.013-.049-.028-.038-.065.107-.395.235-.776.512-1.091a.615.615 0 0 1 .024-.026c.129-.145.258-.206.468-.118.33.138.646.303.972.444.532.23 1.089.364 1.665.428.281.03.563.039.844.043.221.003.443-.018.665-.029.053-.002.088.006.087.068-.002.059.055.129-.043.165-.411.15-.83.277-1.256.38-.42.101-.845.178-1.276.214-.189.017-.378.035-.508.025zM14.169 16.41c.186-.135.361-.249.522-.384.291-.245.583-.489.873-.735.033-.029.054-.042.099-.012.409.285.688.661.801 1.153.015.067.01.085-.064.093-.53.057-1.059.022-1.588-.019-.161-.013-.322-.028-.483-.039-.058-.001-.096-.033-.16-.057zM12.823 17.562c.168.131.293.277.408.434.21.286.347.6.378.955.004.042.026.104-.015.123-.035.019-.068-.035-.099-.062-.308-.27-.493-.612-.595-1.004a2.329 2.329 0 0 1-.077-.446zM13.699 17.092c.594.147 1.082.438 1.399 1-.646-.108-1.064-.498-1.399-1z"/><path fill="#757B93" d="M11.137 16.375c.059-.031.12-.012.181-.012-.06.025-.121.007-.181.012z"/><path fill="#030303" d="M15.48 10.971c.045.029.091.056.135.087.099.071.119.188.052.284-.066.096-.154.109-.265.041a1.464 1.464 0 0 0-.327-.159c.184.23.204.449.026.665-.106.129-.321.177-.488.118-.202-.07-.297-.229-.308-.508-.094.068-.103.198-.197.262-.094.02-.181.014-.241-.073-.059-.083-.042-.165.003-.251.271-.53.871-.756 1.436-.536l.174.07zM14.471 13.029c.103.213.177.438.269.655.032.078.057.159.094.233.053.112.021.201-.056.286a1.603 1.603 0 0 1-.778.46 2.349 2.349 0 0 1-.863.073.269.269 0 0 1-.143-.07c-.007-.013-.016-.025-.022-.039a.216.216 0 0 1 .009-.222c.041-.063.112-.063.179-.059.201.021.4.013.599-.025a1.44 1.44 0 0 0 .625-.28c.053-.041.058-.078.034-.136-.089-.216-.173-.434-.259-.65-.054-.135-.048-.202.02-.253.084-.065.189-.054.292.027zM12.811 15.078c.29.027.561-.024.811-.178.113-.067.215-.045.274.052.062.103.034.218-.077.286a1.625 1.625 0 0 1-.755.239c-.167.014-.328-.012-.49-.034a2.015 2.015 0 0 1-.68-.309l-.044-.031c-.115-.084-.142-.167-.081-.255a.219.219 0 0 1 .317-.049c.216.162.458.252.725.279z"/><g fill="#C93"><path d="M22.957 15.095V9.804h-.913V8.232h.913v-.266c0-.828.252-1.741.856-2.302.547-.505 1.277-.688 1.909-.688.464 0 .828.07 1.124.141l-.084 1.643a2.321 2.321 0 0 0-.688-.098c-.702 0-.997.547-.997 1.22v.352h1.375v1.572H25.09v5.292h-2.133v-.003zM28.543 7.333c-.716 0-1.178-.505-1.178-1.138 0-.646.478-1.138 1.207-1.138s1.179.491 1.193 1.138c0 .632-.464 1.138-1.207 1.138h-.015zm-1.053 7.762V8.232h2.134v6.864l-2.134-.001zM31.335 5.129h2.134v9.966h-2.134V5.129zM36.233 7.333c-.715 0-1.179-.505-1.179-1.138 0-.646.477-1.138 1.207-1.138s1.178.491 1.193 1.138c0 .632-.463 1.138-1.207 1.138h-.014zm-1.052 7.762V8.232h2.133v6.864l-2.133-.001zM39.025 10.533c0-.898-.027-1.657-.055-2.303h1.853l.099.954h.029c.504-.716 1.292-1.108 2.287-1.108 1.504 0 2.851 1.306 2.851 3.495 0 2.498-1.585 3.679-3.116 3.679-.828 0-1.476-.337-1.783-.786h-.028v3.41h-2.134l-.003-7.341zm2.136 1.615c0 .168.014.309.041.45.141.576.632 1.011 1.25 1.011.926 0 1.473-.771 1.473-1.937 0-1.095-.491-1.924-1.444-1.924-.604 0-1.138.448-1.277 1.081-.028.11-.041.253-.041.379l-.002.94zM48.473 7.333c-.717 0-1.18-.505-1.18-1.138 0-.646.479-1.138 1.207-1.138.73 0 1.18.491 1.193 1.138 0 .632-.463 1.138-1.207 1.138h-.013zm-1.054 7.762V8.232h2.134v6.864l-2.134-.001zM50.718 13.86l2.161-2.693c.395-.45.702-.8 1.094-1.208V9.93h-3.018V8.232h5.615v1.291l-2.063 2.597c-.381.436-.729.872-1.123 1.25v.027h3.3v1.699h-5.966V13.86zM59.393 12.331c.071.896.941 1.318 1.938 1.318.729 0 1.319-.098 1.896-.295l.281 1.447c-.701.294-1.559.436-2.484.436-2.33 0-3.664-1.348-3.664-3.51 0-1.74 1.095-3.664 3.467-3.664 2.219 0 3.061 1.728 3.061 3.426 0 .364-.043.688-.07.855l-4.425-.013zm2.513-1.46c0-.505-.225-1.391-1.193-1.391-.912 0-1.277.829-1.333 1.391h2.526zM65.161 10.421c0-.856-.027-1.572-.056-2.189h1.854l.1.954h.041c.28-.448.969-1.107 2.121-1.107 1.402 0 2.456.94 2.456 2.962v4.057h-2.134v-3.804c0-.884-.309-1.488-1.081-1.488-.59 0-.94.407-1.095.8-.057.141-.07.336-.07.533v3.958h-2.135l-.001-4.676z"/></g></svg>