<?xml version="1.0" encoding="UTF-8"?>
<svg width="996px" height="222px" viewBox="0 0 996 222" version="1.1" xmlns="http://www.w3.org/2000/svg" xmlns:xlink="http://www.w3.org/1999/xlink">
    <title>Syncfusion_Horizontal</title>
    <g id="Syncfusion_Horizontal" stroke="none" stroke-width="1" fill="none" fill-rule="evenodd">
        <g id="Group">
            <path d="M279.785749,103.823694 L223.653778,103.823694 C217.613056,103.823694 213.190384,104.947893 210.364189,107.199893 C207.545186,109.455496 206.139279,113.026268 206.139279,117.923017 C206.139279,121.846902 207.336637,124.79432 209.738543,126.754461 C212.14764,128.703792 215.732521,129.683863 220.482399,129.683863 L250.574543,129.683863 C262.965214,129.683863 271.796175,132.036753 277.038658,136.735326 C282.277547,141.437502 284.902384,149.274463 284.902384,160.235398 C284.902384,171.354874 281.871236,179.519726 275.826918,184.73716 C269.771814,189.950991 260.250485,192.566914 247.266529,192.566914 L186.776608,192.566914 L186.776608,173.390682 L243.660074,173.390682 C250.132276,173.390682 254.695178,172.439437 257.345186,170.554964 C259.991597,168.663283 261.321994,165.532102 261.321994,161.154214 C261.321994,156.643007 260.103063,153.425349 257.675987,151.51205 C255.252507,149.602354 251.095915,148.640299 245.209806,148.640299 L218.353763,148.640299 C205.9559,148.640299 196.88403,146.157694 191.156131,141.188881 C185.417445,136.220068 182.551698,128.393917 182.551698,117.670793 C182.551698,106.216219 185.564868,97.8567945 191.591207,92.5708997 C197.624738,87.2922113 207.203597,84.6474623 220.334976,84.6474623 L279.785749,84.6474623 L279.785749,103.823694 Z" id="Fill-113" fill="#0F3071"></path>
            <path d="M331.338637,175.172465 L348.040514,175.172465 L348.040514,113.413612 L368.952918,113.413612 L368.952918,190.439224 C368.952918,200.935347 366.515056,208.69664 361.635734,213.755534 C356.749222,218.800014 349.277424,221.333064 339.220341,221.333064 L298.423893,221.333064 L298.423893,205.269997 L335.646247,205.269997 C339.630247,205.269997 342.693756,204.300736 344.836774,202.351405 C346.972601,200.405676 348.040514,197.584371 348.040514,193.883884 L348.040514,192.565113 L329.663056,192.565113 C317.847691,192.565113 309.433828,190.233842 304.414276,185.574904 C299.380341,180.90876 296.863373,173.136657 296.863373,162.244182 L296.863373,113.413612 L317.556442,113.413612 L317.556442,160.637155 C317.556442,166.607658 318.451763,170.520733 320.224427,172.383588 C321.997092,174.242839 325.697034,175.172465 331.338637,175.172465" id="Fill-115" fill="#0F3071"></path>
            <path d="M385.367502,113.412531 L424.632195,113.412531 C436.501495,113.412531 444.980079,115.646515 450.049971,120.118087 C455.137841,124.604071 457.683574,132.026664 457.683574,142.389468 L457.683574,192.564032 L436.767574,192.564032 L436.767574,144.954946 C436.767574,139.042095 435.847083,135.204686 434.020484,133.439118 C432.186693,131.68436 428.529899,130.801575 423.021336,130.801575 L406.283502,130.801575 L406.283502,192.564032 L385.367502,192.564032 L385.367502,113.412531 Z" id="Fill-117" fill="#0F3071"></path>
            <path d="M516.35121,175.621784 L538.550864,175.621784 L538.550864,192.564032 L510.195427,192.564032 C502.9969,192.564032 497.096409,191.814566 492.479571,190.333651 C487.844755,188.838323 483.83199,186.427782 480.408914,183.102028 C476.737737,179.488018 473.864799,175.074097 471.782907,169.856663 C469.708206,164.639229 468.672654,159.140746 468.672654,153.307164 C468.672654,147.203343 469.701015,141.492271 471.757737,136.18836 C473.803672,130.884449 476.687398,126.441703 480.408914,122.870932 C483.875138,119.548781 487.94903,117.13824 492.623398,115.642912 C497.29417,114.15479 503.144322,113.412531 510.195427,113.412531 L538.550864,113.412531 L538.550864,130.578177 L516.35121,130.578177 C506.520654,130.578177 499.76799,132.278888 496.050069,135.669499 C492.342936,139.067317 490.476784,144.954946 490.476784,153.354006 C490.476784,158.193104 491.23547,162.203466 492.749246,165.363473 C494.263022,168.534289 496.614589,171.099768 499.782373,173.049099 C501.346488,173.985931 503.1623,174.641713 505.244192,175.034462 C507.322488,175.416401 511.015239,175.621784 516.35121,175.621784" id="Fill-119" fill="#0F3071"></path>
            <path d="M557.236471,129.239228 L542.332427,129.239228 L542.332427,113.413972 L557.236471,113.413972 L557.236471,105.15904 C557.236471,97.1022844 558.717886,91.6686583 561.698695,88.8581621 C564.675908,86.0512691 570.378637,84.646021 578.828456,84.646021 L598.629799,84.646021 L598.629799,99.8046846 L588.72733,99.8046846 C585.153236,99.8046846 582.611099,100.370387 581.10811,101.480173 C579.579951,102.597165 578.828456,104.4384 578.828456,107.014688 L578.828456,113.413972 L598.629799,113.413972 L598.629799,129.239228 L578.828456,129.239228 L578.828456,192.565473 L557.236471,192.565473 L557.236471,129.239228 Z" id="Fill-121" fill="#0F3071"></path>
            <path d="M678.098374,192.565113 L638.722215,192.565113 C627.187313,192.565113 618.845363,190.266271 613.721536,185.683 C608.583327,181.085317 606.01602,173.741994 606.01602,163.631414 L606.01602,113.413612 L626.701897,113.413612 L626.701897,161.955926 C626.701897,167.241821 627.62958,170.754941 629.452583,172.520509 C631.28997,174.289681 634.943168,175.172465 640.415775,175.172465 L657.182374,175.172465 L657.182374,113.413612 L678.098374,113.413612 L678.098374,192.565113 Z" id="Fill-123" fill="#0F3071"></path>
            <path d="M693.402975,176.062455 L737.345632,176.062455 C741.26491,176.062455 744.109083,175.457118 745.899726,174.242839 C747.690368,173.028561 748.589285,171.079229 748.589285,168.402051 C748.589285,165.724874 747.683177,163.768336 745.863769,162.536041 C744.055148,161.300144 741.221762,160.67679 737.345632,160.67679 L719.295379,160.67679 C708.637819,160.67679 701.439292,159.040937 697.692606,155.751215 C693.938729,152.465097 692.065386,146.638722 692.065386,138.257678 C692.065386,129.728903 694.330657,123.459334 698.850412,119.434559 C703.384549,115.416991 710.399697,113.413612 719.885069,113.413612 L764.830917,113.413612 L764.830917,129.916269 L727.889025,129.916269 C721.862686,129.916269 717.950599,130.442336 716.138383,131.508884 C714.333357,132.575431 713.423653,134.467111 713.423653,137.198337 C713.423653,139.666529 714.225487,141.489748 715.807581,142.657185 C717.393271,143.817416 719.913834,144.401134 723.340505,144.401134 L742.268101,144.401134 C750.894108,144.401134 757.477776,146.408117 762.019105,150.429288 C766.560433,154.45046 768.825704,160.255216 768.825704,167.861571 C768.825704,175.172465 766.815726,181.114142 762.788578,185.69381 C758.779408,190.266271 753.598051,192.565113 747.262484,192.565113 L693.402975,192.565113 L693.402975,176.062455 Z" id="Fill-125" fill="#0F3071"></path>
            <path d="M781.396159,104.492448 L803.196693,104.492448 L803.196693,84.8694194 L781.396159,84.8694194 L781.396159,104.492448 Z M781.396159,192.565473 L803.196693,192.565473 L803.196693,113.413972 L781.396159,113.413972 L781.396159,192.565473 Z" id="Fill-128" fill="#0F3071"></path>
            <path d="M897.824244,153.059625 C897.824244,165.47265 894.045197,175.388657 886.505082,182.796837 C878.964966,190.19781 868.78563,193.898297 855.988648,193.898297 C843.198858,193.898297 832.990757,190.187 825.367941,182.757201 C817.752316,175.331006 813.940908,165.433014 813.940908,153.059625 C813.940908,140.6466 817.752316,130.708973 825.367941,123.253952 C832.990757,115.795327 843.198858,112.069618 855.988648,112.069618 C868.688547,112.069618 878.835522,115.795327 886.436764,123.253952 C894.027219,130.708973 897.824244,140.6466 897.824244,153.059625 M835.75223,153.059625 C835.75223,160.579504 837.521298,166.449117 841.05584,170.650448 C844.58319,174.858986 849.505659,176.952446 855.844822,176.952446 C862.126453,176.952446 867.056114,174.858986 870.644591,170.650448 C874.225876,166.449117 876.02371,160.579504 876.02371,153.059625 C876.02371,145.536142 874.24745,139.684545 870.680547,135.508436 C867.11724,131.328724 862.173197,129.238867 855.844822,129.238867 C849.56319,129.238867 844.644316,131.343136 841.084605,135.540865 C837.521298,139.749403 835.75223,145.586587 835.75223,153.059625" id="Fill-129" fill="#0F3071"></path>
            <path d="M908.140575,113.412531 L947.405268,113.412531 C959.274568,113.412531 967.753152,115.646515 972.830235,120.118087 C977.910914,124.604071 980.460243,132.026664 980.460243,142.389468 L980.460243,192.564032 L959.537051,192.564032 L959.537051,144.954946 C959.537051,139.042095 958.627347,135.204686 956.793557,133.439118 C954.963362,131.68436 951.302972,130.801575 945.794409,130.801575 L929.052979,130.801575 L929.052979,192.564032 L908.140575,192.564032 L908.140575,113.412531 Z" id="Fill-131" fill="#0F3071"></path>
            <polygon id="Fill-134" fill="#0F3071" points="3.19359461e-15 75.2849066 49.1204188 75.2849066 49.1204188 26.0147458 3.19359461e-15 26.0147458"></polygon>
            <polygon id="Fill-135" fill="#F39400" points="166.029245 70.7380282 198.444191 32.5008666 160.279772 9.60085423e-14 127.864826 38.2551775"></polygon>
            <polygon id="Fill-136" fill="#0F3071" points="58.4296029 75.2849066 107.54283 75.2849066 107.54283 26.0147458 58.4296029 26.0147458"></polygon>
            <polygon id="Fill-137" fill="#0F3071" points="3.19359461e-15 133.844118 49.1204188 133.844118 49.1204188 84.5811634 3.19359461e-15 84.5811634"></polygon>
            <polygon id="Fill-138" fill="#0F3071" points="58.4296029 133.844118 107.54283 133.844118 107.54283 84.5811634 58.4296029 84.5811634"></polygon>
            <polygon id="Fill-139" fill="#F39400" points="117.028202 133.844118 166.14143 133.844118 166.14143 84.5811634 117.028202 84.5811634"></polygon>
            <polygon id="Fill-140" fill="#0F3071" points="0.0791046931 192.453774 49.2031191 192.453774 49.2031191 143.198026 0.0791046931 143.198026"></polygon>
            <polygon id="Fill-141" fill="#0F3071" points="58.5051119 192.453774 107.629126 192.453774 107.629126 143.198026 58.5051119 143.198026"></polygon>
            <polygon id="Fill-142" fill="#0F3071" points="117.107307 192.453774 166.220534 192.453774 166.220534 143.198026 117.107307 143.198026"></polygon>
            <path d="M995.46065,109.502698 C995.46065,114.374225 991.537776,118.305317 986.694412,118.305317 C981.807899,118.305317 977.913791,114.374225 977.913791,109.452253 C977.913791,104.602346 981.883408,100.721699 986.823856,100.721699 C991.537776,100.721699 995.46065,104.732061 995.46065,109.502698 L995.46065,109.502698 Z M981.225401,104.602346 C980.028043,105.931927 979.341271,107.690288 979.341271,109.452253 C979.341271,113.581521 982.59535,116.878449 986.694412,116.878449 C990.725155,116.878449 994.03317,113.563505 994.03317,109.502698 C994.03317,105.521162 990.725155,102.15217 986.802282,102.15217 C984.562181,102.15217 982.699625,102.966493 981.225401,104.602346 L981.225401,104.602346 Z M990.315249,114.709323 L988.531798,114.709323 L985.903365,110.853898 L985.903365,114.709323 L984.457906,114.709323 L984.457906,104.501456 L986.191018,104.501456 C988.38078,104.501456 989.552968,105.521162 989.552968,107.409239 C989.552968,108.944202 988.682816,109.938685 987.204996,110.194513 L990.315249,114.709323 Z M986.367206,108.861329 C987.489054,108.861329 988.071552,108.353277 988.071552,107.384016 C988.071552,106.364311 987.507032,105.906704 986.237762,105.906704 L985.903365,105.906704 L985.903365,108.861329 L986.367206,108.861329 Z" id="Fill-143" fill="#0F3071"></path>
        </g>
    </g>
</svg>